<mxfile host="65bd71144e">
    <diagram id="kgpKYQtTHZ0yAKxKKP6v" name="Page-1">
        <mxGraphModel dx="1401" dy="627" grid="1" gridSize="10" guides="1" tooltips="1" connect="1" arrows="1" fold="1" page="1" pageScale="1" pageWidth="850" pageHeight="1100" math="0" shadow="0">
            <root>
                <mxCell id="0"/>
                <mxCell id="1" parent="0"/>
                <mxCell id="1Q3aQoQ077KybnQAMOsV-2" value="Scheduling Client" style="shape=umlLifeline;perimeter=lifelinePerimeter;container=1;collapsible=0;recursiveResize=0;rounded=0;shadow=0;strokeWidth=1;" parent="1" vertex="1">
                    <mxGeometry x="110" y="80" width="100" height="160" as="geometry"/>
                </mxCell>
                <mxCell id="1Q3aQoQ077KybnQAMOsV-3" value="" style="points=[];perimeter=orthogonalPerimeter;rounded=0;shadow=0;strokeWidth=1;" parent="1Q3aQoQ077KybnQAMOsV-2" vertex="1">
                    <mxGeometry x="45" y="70" width="10" height="60" as="geometry"/>
                </mxCell>
                <mxCell id="1Q3aQoQ077KybnQAMOsV-4" value="Trigger" style="verticalAlign=bottom;startArrow=oval;endArrow=block;startSize=8;shadow=0;strokeWidth=1;" parent="1Q3aQoQ077KybnQAMOsV-2" target="1Q3aQoQ077KybnQAMOsV-3" edge="1">
                    <mxGeometry relative="1" as="geometry">
                        <mxPoint x="-15" y="70" as="sourcePoint"/>
                    </mxGeometry>
                </mxCell>
                <mxCell id="1Q3aQoQ077KybnQAMOsV-5" value="Scheduling Server" style="shape=umlLifeline;perimeter=lifelinePerimeter;container=1;collapsible=0;recursiveResize=0;rounded=0;shadow=0;strokeWidth=1;" parent="1" vertex="1">
                    <mxGeometry x="535" y="80" width="140" height="160" as="geometry"/>
                </mxCell>
                <mxCell id="1Q3aQoQ077KybnQAMOsV-7" value="Response containing available Slots" style="verticalAlign=bottom;endArrow=open;dashed=1;endSize=8;exitX=0;exitY=0.95;shadow=0;strokeWidth=1;" parent="1Q3aQoQ077KybnQAMOsV-5" target="1Q3aQoQ077KybnQAMOsV-3" edge="1">
                    <mxGeometry relative="1" as="geometry">
                        <mxPoint x="-265" y="109.99999999999989" as="targetPoint"/>
                        <mxPoint x="65" y="109.99999999999989" as="sourcePoint"/>
                    </mxGeometry>
                </mxCell>
                <mxCell id="1Q3aQoQ077KybnQAMOsV-8" value="GET request for bookable Slots" style="verticalAlign=bottom;endArrow=block;entryX=0;entryY=0;shadow=0;strokeWidth=1;" parent="1" source="1Q3aQoQ077KybnQAMOsV-3" target="1Q3aQoQ077KybnQAMOsV-6" edge="1">
                    <mxGeometry relative="1" as="geometry">
                        <mxPoint x="265" y="160" as="sourcePoint"/>
                    </mxGeometry>
                </mxCell>
                <mxCell id="1Q3aQoQ077KybnQAMOsV-6" value="" style="points=[];perimeter=orthogonalPerimeter;rounded=0;shadow=0;strokeWidth=1;" parent="1" vertex="1">
                    <mxGeometry x="600" y="160" width="10" height="50" as="geometry"/>
                </mxCell>
            </root>
        </mxGraphModel>
    </diagram>
</mxfile>